GIL02_slow1_ik
nRows=3
nColumns=375

# SIMM Motion File Header:
name GIL02_slow1_ik
datacolumns 375
datarows 3
otherdata 1
range 1.06667000 1.08333000
endheader
time	pelvis_tx	pelvis_ty	pelvis_tz	pelvis_tilt	pelvis_list	pelvis_rotation	hip_flexion_r	hip_adduction_r	hip_rotation_r	knee_angle_r	ankle_angle_r	hip_flexion_l	hip_adduction_l	hip_rotation_l	knee_angle_l	ankle_angle_l	lumbar_extension	lumbar_bending	lumbar_rotation	subtalar_angle_r	mtp_angle_r	subtalar_angle_l	mtp_angle_l	asis_r_px	asis_r_py	asis_r_pz	asis_l_px	asis_l_py	asis_l_pz	midasis_px	midasis_py	midasis_pz	psis_r_px	psis_r_py	psis_r_pz	psis_l_px	psis_l_py	psis_l_pz	hip_r_px	hip_r_py	hip_r_pz	hip_l_px	hip_l_py	hip_l_pz	midhip_px	midhip_py	midhip_pz	epicondLat_r_px	epicondLat_r_py	epicondLat_r_pz	epicondMed_r_px	epicondMed_r_py	epicondMed_r_pz	thighwand_r_px	thighwand_r_py	thighwand_r_pz	upperleg1_r_px	upperleg1_r_py	upperleg1_r_pz	upperleg2_r_px	upperleg2_r_py	upperleg2_r_pz	malleolusLat_r_px	malleolusLat_r_py	malleolusLat_r_pz	malleolusMedv_r_px	malleolusMedv_r_py	malleolusMedv_r_pz	shankwand_r_px	shankwand_r_py	shankwand_r_pz	lowerleg1_r_px	lowerleg1_r_py	lowerleg1_r_pz	knee_r_px	knee_r_py	knee_r_pz	ankle_r_px	ankle_r_py	ankle_r_pz	toe_r_px	toe_r_py	toe_r_pz	epicondLat_l_px	epicondLat_l_py	epicondLat_l_pz	epicondMed_l_px	epicondMed_l_py	epicondMed_l_pz	thighwand_l_px	thighwand_l_py	thighwand_l_pz	upperleg1_l_px	upperleg1_l_py	upperleg1_l_pz	upperleg2_l_px	upperleg2_l_py	upperleg2_l_pz	malleolusLat_l_px	malleolusLat_l_py	malleolusLat_l_pz	malleolusMedv_l_px	malleolusMedv_l_py	malleolusMedv_l_pz	shankwand_l_px	shankwand_l_py	shankwand_l_pz	lowerleg1_l_px	lowerleg1_l_py	lowerleg1_l_pz	knee_l_px	knee_l_py	knee_l_pz	ankle_l_px	ankle_l_py	ankle_l_pz	toe_l_px	toe_l_py	toe_l_pz	subclavicle_r_px	subclavicle_r_py	subclavicle_r_pz	subclavicle_l_px	subclavicle_l_py	subclavicle_l_pz	neck_px	neck_py	neck_pz	sternalnotch_px	sternalnotch_py	sternalnotch_pz	xyphoidprocess_px	xyphoidprocess_py	xyphoidprocess_pz	midhip_tx	midhip_ty	midhip_tz	hip_r_tx	hip_r_ty	hip_r_tz	hip_l_tx	hip_l_ty	hip_l_tz	knee_r_tx	knee_r_ty	knee_r_tz	knee_l_tx	knee_l_ty	knee_l_tz	ankle_r_tx	ankle_r_ty	ankle_r_tz	ankle_l_tx	ankle_l_ty	ankle_l_tz	midasis_tx	midasis_ty	midasis_tz	asis_r_tx	asis_r_ty	asis_r_tz	asis_l_tx	asis_l_ty	asis_l_tz	psis_r_tx	psis_r_ty	psis_r_tz	psis_l_tx	psis_l_ty	psis_l_tz	epicondLat_r_tx	epicondLat_r_ty	epicondLat_r_tz	epicondLat_l_tx	epicondLat_l_ty	epicondLat_l_tz	epicondMed_r_tx	epicondMed_r_ty	epicondMed_r_tz	epicondMed_l_tx	epicondMed_l_ty	epicondMed_l_tz	malleolusLat_r_tx	malleolusLat_r_ty	malleolusLat_r_tz	malleolusLat_l_tx	malleolusLat_l_ty	malleolusLat_l_tz	malleolusMedv_r_tx	malleolusMedv_r_ty	malleolusMedv_r_tz	malleolusMedv_l_tx	malleolusMedv_l_ty	malleolusMedv_l_tz	neck_tx	neck_ty	neck_tz	subclavicle_r_tx	subclavicle_r_ty	subclavicle_r_tz	subclavicle_l_tx	subclavicle_l_ty	subclavicle_l_tz	sternalnotch_tx	sternalnotch_ty	sternalnotch_tz	xyphoidprocess_tx	xyphoidprocess_ty	xyphoidprocess_tz	thighwand_r_tx	thighwand_r_ty	thighwand_r_tz	thighwand_l_tx	thighwand_l_ty	thighwand_l_tz	upperleg1_r_tx	upperleg1_r_ty	upperleg1_r_tz	upperleg1_l_tx	upperleg1_l_ty	upperleg1_l_tz	upperleg2_r_tx	upperleg2_r_ty	upperleg2_r_tz	upperleg2_l_tx	upperleg2_l_ty	upperleg2_l_tz	shankwand_r_tx	shankwand_r_ty	shankwand_r_tz	shankwand_l_tx	shankwand_l_ty	shankwand_l_tz	lowerleg1_r_tx	lowerleg1_r_ty	lowerleg1_r_tz	lowerleg1_l_tx	lowerleg1_l_ty	lowerleg1_l_tz	toe_r_tx	toe_r_ty	toe_r_tz	toe_l_tx	toe_l_ty	toe_l_tz	ground_force_vx	ground_force_vy	ground_force_vz	ground_force_px	ground_force_py	ground_force_pz	ground_force_vx	ground_force_vy	ground_force_vz	ground_force_px	ground_force_py	ground_force_pz	ground_torque_x	ground_torque_y	ground_torque_z	ground_torque_x	ground_torque_y	ground_torque_z	ground_marker_px	ground_marker_py	ground_marker_pz	ground_marker_px	ground_marker_py	ground_marker_pz	ground_marker_px	ground_marker_py	ground_marker_pz	ground_marker_px	ground_marker_py	ground_marker_pz	ground_marker_px	ground_marker_py	ground_marker_pz	ground_marker_px	ground_marker_py	ground_marker_pz	ground_marker_px	ground_marker_py	ground_marker_pz	ground_marker_px	ground_marker_py	ground_marker_pz	ground_marker_px	ground_marker_py	ground_marker_pz	ground_marker_px	ground_marker_py	ground_marker_pz	ground_marker_px	ground_marker_py	ground_marker_pz	ground_marker_px	ground_marker_py	ground_marker_pz	ground_marker_px	ground_marker_py	ground_marker_pz	ground_marker_px	ground_marker_py	ground_marker_pz	ground_marker_px	ground_marker_py	ground_marker_pz	ground_marker_px	ground_marker_py	ground_marker_pz	ground_marker_px	ground_marker_py	ground_marker_pz	ground_marker_px	ground_marker_py	ground_marker_pz	ground_marker_px	ground_marker_py	ground_marker_pz	ground_marker_px	ground_marker_py	ground_marker_pz	ground_marker_px	ground_marker_py	ground_marker_pz	ground_marker_px	ground_marker_py	ground_marker_pz	ground_marker_px	ground_marker_py	ground_marker_pz	ground_marker_px	ground_marker_py	ground_marker_pz	ground_marker_px	ground_marker_py	ground_marker_pz	ground_marker_px	ground_marker_py	ground_marker_pz	ground_marker_px	ground_marker_py	ground_marker_pz	ground_marker_px	ground_marker_py	ground_marker_pz	ground_marker_px	ground_marker_py	ground_marker_pz	ground_marker_px	ground_marker_py	ground_marker_pz	ground_marker_px	ground_marker_py	ground_marker_pz	ground_marker_px	ground_marker_py	ground_marker_pz	ground_marker_px	ground_marker_py	ground_marker_pz	ground_marker_px	ground_marker_py	ground_marker_pz	ground_marker_px	ground_marker_py	ground_marker_pz	ground_marker_px	ground_marker_py	ground_marker_pz	ground_marker_px	ground_marker_py	ground_marker_pz
      1.06667000	      1.37403514	      0.95049793	     -0.22680876	      0.98198987	      4.62532074	     -4.28243487	     19.65392318	     -4.55917645	     13.63167656	    -50.44057723	     -1.08850607	     -1.74501366	      8.80272190	      5.92617811	     -1.79587129	      4.70705621	     -5.30208957	     -3.85086072	      3.62277411	      0.00000000	      0.00000000	      0.00000000	      0.00000000	      1.41166057	      0.94163568	     -0.10673549	      1.43123829	      0.96755101	     -0.34267013	      1.38702275	      0.95064210	     -0.22583934	      1.23259207	      1.00146684	     -0.20258599	      1.24441287	      1.00740138	     -0.28753806	      1.30380536	      0.88213946	     -0.15945029	      1.31519104	      0.89482995	     -0.31387605	      1.30949820	      0.88848471	     -0.23666317	      1.48134650	      0.49490139	     -0.07575768	      1.43844419	      0.48216890	     -0.17852255	      1.49912143	      0.62477531	     -0.01840953	      1.47892172	      0.68364159	     -0.09148819	      1.50058032	      0.59799880	     -0.10710081	      1.23941271	      0.13979570	     -0.05196870	      1.25748313	      0.13752565	     -0.12148579	      1.33634506	      0.24649421	      0.01946718	      1.30096806	      0.22170774	     -0.04893595	      1.45410689	      0.48290442	     -0.14788299	      1.25598129	      0.14175871	     -0.09780528	      1.33932926	      0.04658843	     -0.07239693	      1.32827481	      0.45292297	     -0.34966432	      1.30081443	      0.46672665	     -0.24335263	      1.46962798	      0.55695496	     -0.26982386	      1.41327579	      0.61486610	     -0.32512662	      1.39091123	      0.53086981	     -0.32258438	      1.25940401	      0.06489184	     -0.30190305	      1.27638454	      0.08138401	     -0.23915402	      1.30809615	      0.19397030	     -0.39104609	      1.27931280	      0.16325472	     -0.32143694	      1.30049205	      0.47690049	     -0.28524082	      1.27854299	      0.08067106	     -0.25950360	      1.39730134	      0.04587977	     -0.28482230	      1.34192044	      1.34905970	     -0.16457433	      1.35565456	      1.35429626	     -0.27190300	      1.21760337	      1.42321659	     -0.22200857	      1.33134629	      1.35921665	     -0.21718365	      1.41704219	      1.19738615	     -0.22594381	      1.31065700	      0.89266700	     -0.23075700	      1.30168300	      0.86850400	     -0.16346300	      1.31442500	      0.87776300	     -0.31306500	      1.44736100	      0.48163700	     -0.13353800	      1.30485200	      0.46343800	     -0.28304400	      1.24867700	      0.14013900	     -0.13031400	      1.27895000	      0.06965200	     -0.23659900	      1.39230000	      0.96122100	     -0.22563700	      1.38228900	      0.95394700	     -0.10810900	      1.40231000	      0.96849500	     -0.34316500	      1.20229000	      0.99479600	     -0.19924900	      1.21368300	      1.00039200	     -0.28450400	      1.45387200	      0.48855300	     -0.07581400	      1.31559000	      0.45907200	     -0.33987400	      1.45710000	      0.46332200	     -0.18280600	      1.27617400	      0.45451400	     -0.23743400	      1.23078900	      0.15086900	     -0.09618300	      1.26395800	      0.06640900	     -0.27245600	      1.26779200	      0.14545500	     -0.15571800	      1.28486800	      0.08593500	     -0.21214000	      1.22066800	      1.42954200	     -0.22224200	      1.34051900	      1.34495100	     -0.16535300	      1.35224400	      1.34917400	     -0.26970900	      1.32981800	      1.35585700	     -0.21658000	      1.40203600	      1.18786300	     -0.22661400	      1.46767400	      0.58948200	     -0.00033400	      1.45331500	      0.53713000	     -0.27510000	      1.46284600	      0.65435400	     -0.06763100	      1.39424900	      0.59554700	     -0.32563300	      1.49283100	      0.57198700	     -0.08635200	      1.36452800	      0.51187100	     -0.32258300	      1.29805700	      0.26877700	     -0.00926100	      1.30311100	      0.19289700	     -0.37116700	      1.28689900	      0.23647400	     -0.08265500	      1.27929500	      0.16382800	     -0.29918200	      1.33083400	      0.05927100	     -0.09461200	      1.39976100	      0.03922500	     -0.26151700	      0.00000000	      0.00000000	      0.00000000	      1.00632257	      0.00000000	     -0.15178259	    -14.77797063	    607.42480256	     12.97035704	      1.32386670	      0.00000000	     -0.24742439	      0.00000000	      0.00000000	      0.00000000	      0.00000000	      0.02260022	      0.00000000	      1.31065655	      0.89266723	     -0.23075673	      1.30168283	      0.86850405	     -0.16346283	      1.31442523	      0.87776273	     -0.31306529	      1.44736135	      0.48163661	     -0.13353752	      1.30485165	      0.46343833	     -0.28304437	      1.24867666	      0.14013921	     -0.13031374	      1.27894998	      0.06965207	     -0.23659907	      1.39229965	      0.96122086	     -0.22563675	      1.38228917	      0.95394713	     -0.10810871	      1.40231013	      0.96849459	     -0.34316477	      1.20229030	      0.99479592	     -0.19924922	      1.21368277	      1.00039220	     -0.28450444	      1.45387232	      0.48855349	     -0.07581392	      1.31558979	      0.45907244	     -0.33987424	      1.45709956	      0.46332222	     -0.18280582	      1.27617419	      0.45451361	     -0.23743404	      1.23078883	      0.15086861	     -0.09618300	      1.26395750	      0.06640907	     -0.27245587	      1.26779246	      0.14545527	     -0.15571836	      1.28486848	      0.08593491	     -0.21214049	      1.22066784	      1.42954171	     -0.22224243	      1.34051919	      1.34495103	     -0.16535275	      1.35224354	      1.34917390	     -0.26970875	      1.32981813	      1.35585701	     -0.21657966	      1.40203631	      1.18786347	     -0.22661388	      1.46767414	      0.58948153	     -0.00033443	      1.45331526	      0.53712976	     -0.27509993	      1.46284616	      0.65435368	     -0.06763092	      1.39424872	      0.59554654	     -0.32563347	      1.49283147	      0.57198685	     -0.08635181	      1.36452842	      0.51187056	     -0.32258293	      1.29805672	      0.26877722	     -0.00926124	      1.30311131	      0.19289738	     -0.37116653	      1.28689909	      0.23647422	     -0.08265501	      1.27929509	      0.16382767	     -0.29918200	      1.33083415	      0.05927121	     -0.09461172	      1.39976084	      0.03922521	     -0.26151699
      1.07500000	      1.37888845	      0.95006478	     -0.22727639	      0.97191631	      4.41978443	     -4.13542239	     20.45576597	     -4.35024142	     13.15451151	    -49.46584808	     -0.59454018	     -2.02666551	      8.68704644	      5.88041664	     -1.88011222	      5.01061784	     -5.50326786	     -3.72076380	      3.82100862	      0.00000000	      0.00000000	      0.00000000	      0.00000000	      1.41681377	      0.94163933	     -0.10726604	      1.43580166	      0.96669839	     -0.34334134	      1.39187843	      0.95021276	     -0.22633993	      1.23750470	      1.00111819	     -0.20288580	      1.24911321	      1.00674454	     -0.28788809	      1.30882915	      0.88194977	     -0.15949509	      1.31982892	      0.89407979	     -0.31399385	      1.31432903	      0.88801478	     -0.23674447	      1.49154718	      0.49718725	     -0.07552746	      1.44936093	      0.48400980	     -0.17853240	      1.50713950	      0.62720681	     -0.01787517	      1.48646093	      0.68589911	     -0.09095984	      1.50944120	      0.60060681	     -0.10660168	      1.26048141	      0.13507801	     -0.05398173	      1.27887838	      0.13363723	     -0.12343527	      1.35374636	      0.24449411	      0.01822146	      1.31942476	      0.21886799	     -0.05040957	      1.46466922	      0.48510861	     -0.14780413	      1.27715443	      0.13773201	     -0.09974557	      1.36413690	      0.04588532	     -0.07428797	      1.33067295	      0.45207157	     -0.34927697	      1.30366641	      0.46613733	     -0.24288340	      1.47281107	      0.55552545	     -0.27008152	      1.41653472	      0.61363691	     -0.32525122	      1.39377894	      0.52975161	     -0.32252260	      1.25954200	      0.06449316	     -0.30088529	      1.27684648	      0.08094081	     -0.23821313	      1.30872030	      0.19317886	     -0.39032881	      1.27999281	      0.16271111	     -0.32058779	      1.30324961	      0.47625435	     -0.28478065	      1.27892850	      0.08019452	     -0.25856948	      1.39752591	      0.04524171	     -0.28441466	      1.34820076	      1.34846777	     -0.16572951	      1.36130350	      1.35357084	     -0.27314351	      1.22378050	      1.42298083	     -0.22247521	      1.33734217	      1.35861550	     -0.21828264	      1.42245792	      1.19650009	     -0.22742277	      1.31506000	      0.89186300	     -0.23114400	      1.30678200	      0.86859900	     -0.16375500	      1.31916900	      0.87741800	     -0.31341400	      1.45807400	      0.48350600	     -0.13428300	      1.30761600	      0.46327200	     -0.28291500	      1.26999100	      0.13534800	     -0.13065300	      1.27939800	      0.06967500	     -0.23638900	      1.39727000	      0.96111400	     -0.22641600	      1.38753800	      0.95418600	     -0.10884900	      1.40700100	      0.96804100	     -0.34398300	      1.20746600	      0.99473300	     -0.19942200	      1.21860700	      1.00014600	     -0.28469400	      1.46418700	      0.49032900	     -0.07650500	      1.31813500	      0.45879100	     -0.33977600	      1.46737800	      0.46648800	     -0.18502300	      1.27995300	      0.45393600	     -0.23814300	      1.25192000	      0.14546800	     -0.09643200	      1.26431300	      0.06652200	     -0.27221400	      1.28913200	      0.14127700	     -0.15606900	      1.28512400	      0.08587300	     -0.21178200	      1.22700000	      1.42945900	     -0.22304500	      1.34658200	      1.34440600	     -0.16739400	      1.35826400	      1.34892600	     -0.27004200	      1.33573800	      1.35567500	     -0.21709000	      1.40763800	      1.18734600	     -0.22834600	      1.47604300	      0.59109600	     -0.00091000	      1.45662700	      0.53616200	     -0.27554400	      1.47013700	      0.65631000	     -0.06766600	      1.39793800	      0.59466900	     -0.32607300	      1.50148500	      0.57456900	     -0.08739500	      1.36857100	      0.51179300	     -0.32312500	      1.31577900	      0.26530400	     -0.00962200	      1.30403400	      0.19264500	     -0.37102900	      1.30568700	      0.23238200	     -0.08322600	      1.28012000	      0.16391400	     -0.29900700	      1.35541700	      0.05784900	     -0.09504300	      1.39975200	      0.03922900	     -0.26161400	      0.00000000	      0.00000000	      0.00000000	      1.00685315	      0.00000000	     -0.15198764	    -11.86134484	    608.57568357	     12.21160761	      1.32377148	      0.00000000	     -0.24729472	      0.00000000	      0.00000000	      0.00000000	      0.00000000	     -0.20047729	      0.00000000	      1.31505966	      0.89186323	     -0.23114407	      1.30678153	      0.86859900	     -0.16375531	      1.31916940	      0.87741750	     -0.31341413	      1.45807421	      0.48350561	     -0.13428289	      1.30761552	      0.46327221	     -0.28291452	      1.26999092	      0.13534822	     -0.13065279	      1.27939796	      0.06967546	     -0.23638864	      1.39726996	      0.96111351	     -0.22641581	      1.38753843	      0.95418602	     -0.10884909	      1.40700150	      0.96804100	     -0.34398252	      1.20746577	      0.99473286	     -0.19942243	      1.21860671	      1.00014567	     -0.28469351	      1.46418703	      0.49032909	     -0.07650466	      1.31813538	      0.45879117	     -0.33977625	      1.46737790	      0.46648768	     -0.18502346	      1.27995336	      0.45393640	     -0.23814327	      1.25191975	      0.14546750	     -0.09643240	      1.26431251	      0.06652211	     -0.27221438	      1.28913236	      0.14127709	     -0.15606900	      1.28512394	      0.08587275	     -0.21178240	      1.22700024	      1.42945910	     -0.22304516	      1.34658158	      1.34440577	     -0.16739407	      1.35826445	      1.34892571	     -0.27004206	      1.33573842	      1.35567534	     -0.21709020	      1.40763831	      1.18734586	     -0.22834560	      1.47604275	      0.59109598	     -0.00091010	      1.45662713	      0.53616214	     -0.27554426	      1.47013664	      0.65631044	     -0.06766581	      1.39793837	      0.59466928	     -0.32607260	      1.50148523	      0.57456881	     -0.08739460	      1.36857128	      0.51179332	     -0.32312524	      1.31577897	      0.26530427	     -0.00962187	      1.30403352	      0.19264525	     -0.37102929	      1.30568743	      0.23238246	     -0.08322605	      1.28012013	      0.16391385	     -0.29900739	      1.35541666	      0.05784918	     -0.09504320	      1.39975166	      0.03922898	     -0.26161376
      1.08333000	      1.38396084	      0.94969995	     -0.22766998	      0.95514036	      4.22086840	     -3.98212273	     21.21858052	     -4.16559383	     12.61075226	    -48.40617835	     -0.14340848	     -2.31080334	      8.57391668	      5.85015517	     -1.96999826	      5.31299115	     -5.68355903	     -3.54333454	      3.95016166	      0.00000000	      0.00000000	      0.00000000	      0.00000000	      1.42219844	      0.94169287	     -0.10773010	      1.44057244	      0.96591992	     -0.34394080	      1.39695323	      0.94984998	     -0.22676794	      1.24264563	      1.00085235	     -0.20309026	      1.25403279	      1.00617868	     -0.28814181	      1.31407274	      0.88183039	     -0.15946704	      1.32467037	      0.89341607	     -0.31403566	      1.31937156	      0.88762323	     -0.23675135	      1.50154414	      0.49943946	     -0.07514453	      1.46016669	      0.48589504	     -0.17842956	      1.51500106	      0.62954262	     -0.01714392	      1.49396124	      0.68809492	     -0.09023778	      1.51820442	      0.60315796	     -0.10590675	      1.28177110	      0.13056059	     -0.05614844	      1.30052559	      0.12999806	     -0.12551898	      1.37114639	      0.24260760	      0.01693412	      1.33798135	      0.21618018	     -0.05196117	      1.47506605	      0.48733868	     -0.14759892	      1.29856181	      0.13393718	     -0.10182156	      1.38901498	      0.04553967	     -0.07624898	      1.33321448	      0.45131852	     -0.34882822	      1.30664640	      0.46564250	     -0.24235874	      1.47613409	      0.55416350	     -0.27024856	      1.41995386	      0.61248674	     -0.32529260	      1.39679471	      0.52871793	     -0.32238510	      1.25972068	      0.06422080	     -0.29983794	      1.27734076	      0.08061330	     -0.23723931	      1.30943090	      0.19250385	     -0.38956537	      1.28074039	      0.16228631	     -0.31970038	      1.30614464	      0.47570501	     -0.28426404	      1.27934980	      0.07983497	     -0.25760179	      1.39777898	      0.04469043	     -0.28395338	      1.35454461	      1.34791713	     -0.16645907	      1.36714362	      1.35297894	     -0.27393527	      1.23007467	      1.42280003	     -0.22260581	      1.34346268	      1.35809617	     -0.21895950	      1.42804915	      1.19572730	     -0.22850500	      1.32002100	      0.89165900	     -0.23135000	      1.31192500	      0.86864200	     -0.16405300	      1.32393700	      0.87704000	     -0.31376700	      1.46854700	      0.48524200	     -0.13501300	      1.31039400	      0.46310700	     -0.28279100	      1.29154600	      0.13055700	     -0.13104000	      1.27981700	      0.06972200	     -0.23622300	      1.40227800	      0.96095700	     -0.22719900	      1.39284100	      0.95436000	     -0.10958400	      1.41171500	      0.96755500	     -0.34481400	      1.21264900	      0.99466000	     -0.19956500	      1.22349100	      0.99985400	     -0.28482500	      1.47421400	      0.49193700	     -0.07717500	      1.32070300	      0.45851200	     -0.33968200	      1.47715700	      0.46889600	     -0.18606200	      1.28399200	      0.45360800	     -0.23745200	      1.27331800	      0.14003800	     -0.09672000	      1.26462800	      0.06666500	     -0.27201300	      1.31058300	      0.13708200	     -0.15647600	      1.28542300	      0.08581900	     -0.21144200	      1.23356200	      1.42935000	     -0.22327700	      1.35312900	      1.34428600	     -0.16816200	      1.36375000	      1.34873300	     -0.27054200	      1.34168900	      1.35541600	     -0.21756600	      1.41325500	      1.18708200	     -0.22947600	      1.48409200	      0.59256600	     -0.00142300	      1.45995600	      0.53521700	     -0.27597400	      1.47757900	      0.65822200	     -0.06792100	      1.40119300	      0.59387100	     -0.32643100	      1.50982300	      0.57694700	     -0.08787900	      1.37223300	      0.51166200	     -0.32307500	      1.33364900	      0.26170200	     -0.01003600	      1.30489800	      0.19240600	     -0.37090500	      1.32374200	      0.22873700	     -0.08364100	      1.28037100	      0.16402700	     -0.29882000	      1.38007500	      0.05658600	     -0.09552500	      1.39972500	      0.03924200	     -0.26171200	      0.00000000	      0.00000000	      0.00000000	      1.00738037	      0.00000000	     -0.15221486	     -8.85514092	    609.63479800	     11.74608942	      1.32363293	      0.00000000	     -0.24721785	      0.00000000	      0.00000000	      0.00000000	      0.00000000	     -0.38642334	      0.00000000	      1.32002068	      0.89165926	     -0.23135015	      1.31192458	      0.86864191	     -0.16405292	      1.32393718	      0.87703955	     -0.31376651	      1.46854711	      0.48524180	     -0.13501319	      1.31039405	      0.46310684	     -0.28279069	      1.29154587	      0.13055722	     -0.13104014	      1.27981675	      0.06972163	     -0.23622264	      1.40227830	      0.96095747	     -0.22719932	      1.39284122	      0.95436025	     -0.10958429	      1.41171539	      0.96755469	     -0.34481433	      1.21264911	      0.99465990	     -0.19956517	      1.22349083	      0.99985433	     -0.28482521	      1.47421360	      0.49193746	     -0.07717456	      1.32070339	      0.45851219	     -0.33968186	      1.47715652	      0.46889555	     -0.18606241	      1.28399241	      0.45360804	     -0.23745225	      1.27331841	      0.14003789	     -0.09671996	      1.26462758	      0.06666549	     -0.27201298	      1.31058264	      0.13708158	     -0.15647604	      1.28542316	      0.08581871	     -0.21144165	      1.23356152	      1.42935026	     -0.22327720	      1.35312915	      1.34428608	     -0.16816191	      1.36374998	      1.34873271	     -0.27054191	      1.34168923	      1.35541630	     -0.21756552	      1.41325474	      1.18708217	     -0.22947627	      1.48409164	      0.59256643	     -0.00142257	      1.45995641	      0.53521699	     -0.27597407	      1.47757864	      0.65822190	     -0.06792099	      1.40119350	      0.59387058	     -0.32643116	      1.50982344	      0.57694733	     -0.08787912	      1.37223256	      0.51166165	     -0.32307476	      1.33364856	      0.26170164	     -0.01003607	      1.30489779	      0.19240583	     -0.37090540	      1.32374203	      0.22873668	     -0.08364070	      1.28037059	      0.16402748	     -0.29882026	      1.38007486	      0.05658587	     -0.09552495	      1.39972460	      0.03924161	     -0.26171204
